<mxfile host="app.diagrams.net" modified="2023-09-07T04:16:16.373Z" agent="Mozilla/5.0 (Windows NT 10.0; Win64; x64) AppleWebKit/537.36 (KHTML, like Gecko) Chrome/116.0.0.0 Safari/537.36" etag="jvXwalyxErPL8pR-7Ulm" version="21.7.2" type="github" pages="2">
  <diagram name="Page-1" id="xHRpkcf7Uff5HgZ3ALfG">
    <mxGraphModel dx="1221" dy="622" grid="1" gridSize="10" guides="1" tooltips="1" connect="1" arrows="1" fold="1" page="1" pageScale="1" pageWidth="850" pageHeight="1100" math="0" shadow="0">
      <root>
        <mxCell id="0" />
        <mxCell id="1" parent="0" />
        <mxCell id="UpgFTflyBAgRF1FKhpor-101" value="" style="edgeStyle=orthogonalEdgeStyle;rounded=1;orthogonalLoop=1;jettySize=auto;html=1;" parent="1" source="UpgFTflyBAgRF1FKhpor-102" target="UpgFTflyBAgRF1FKhpor-103" edge="1">
          <mxGeometry relative="1" as="geometry" />
        </mxCell>
        <mxCell id="UpgFTflyBAgRF1FKhpor-102" value="&lt;div style=&quot;background-color: rgb(255, 255, 255); font-family: Consolas, &amp;quot;Courier New&amp;quot;, monospace; font-size: 14px; line-height: 19px;&quot;&gt;ar_game_border_handle(&lt;span style=&quot;color: #267f99;&quot;&gt;ak_msg_t&lt;/span&gt;&lt;span style=&quot;color: #0000ff;&quot;&gt;*&lt;/span&gt; &lt;span style=&quot;color: #001080;&quot;&gt;msg&lt;/span&gt;)&lt;/div&gt;" style="rounded=1;whiteSpace=wrap;html=1;fontSize=12;glass=0;strokeWidth=1;shadow=0;" parent="1" vertex="1">
          <mxGeometry x="119" y="350" width="310" height="70" as="geometry" />
        </mxCell>
        <mxCell id="UpgFTflyBAgRF1FKhpor-103" value="" style="rounded=1;whiteSpace=wrap;html=1;fontSize=12;glass=0;strokeWidth=1;shadow=0;" parent="1" vertex="1">
          <mxGeometry x="60" y="445" width="428" height="590" as="geometry" />
        </mxCell>
        <mxCell id="UpgFTflyBAgRF1FKhpor-104" value="" style="edgeStyle=orthogonalEdgeStyle;rounded=1;orthogonalLoop=1;jettySize=auto;html=1;exitX=0;exitY=0.225;exitDx=0;exitDy=0;exitPerimeter=0;entryX=-0.002;entryY=0.118;entryDx=0;entryDy=0;entryPerimeter=0;" parent="1" source="UpgFTflyBAgRF1FKhpor-105" target="UpgFTflyBAgRF1FKhpor-108" edge="1">
          <mxGeometry relative="1" as="geometry">
            <mxPoint x="118" y="700" as="targetPoint" />
            <Array as="points">
              <mxPoint x="98" y="550" />
              <mxPoint x="98" y="655" />
              <mxPoint x="127" y="655" />
            </Array>
          </mxGeometry>
        </mxCell>
        <mxCell id="UpgFTflyBAgRF1FKhpor-105" value="&lt;div style=&quot;background-color: rgb(255, 255, 255); font-family: Consolas, &amp;quot;Courier New&amp;quot;, monospace; font-size: 14px; line-height: 19px;&quot;&gt;&lt;div style=&quot;line-height: 19px;&quot;&gt;&lt;div style=&quot;line-height: 19px;&quot;&gt;&lt;div style=&quot;line-height: 19px;&quot;&gt;AR_GAME_BORDER_SETUP&lt;/div&gt;&lt;/div&gt;&lt;/div&gt;&lt;/div&gt;" style="swimlane;fontStyle=0;childLayout=stackLayout;horizontal=1;startSize=30;horizontalStack=0;resizeParent=1;resizeParentMax=0;resizeLast=0;collapsible=1;marginBottom=0;whiteSpace=wrap;html=1;rounded=1;" parent="1" vertex="1">
          <mxGeometry x="128" y="530" width="310" height="90" as="geometry" />
        </mxCell>
        <mxCell id="UpgFTflyBAgRF1FKhpor-106" value="&lt;div style=&quot;background-color: rgb(255, 255, 255); font-family: Consolas, &amp;quot;Courier New&amp;quot;, monospace; font-size: 14px; line-height: 19px;&quot;&gt;&lt;div style=&quot;line-height: 19px;&quot;&gt;&lt;div style=&quot;line-height: 19px;&quot;&gt;APP_DBG_SIG(&lt;span style=&quot;color: #a31515;&quot;&gt;&quot;&lt;/span&gt;AR_GAME_BORDER_SETUP&lt;span style=&quot;color: rgb(238, 0, 0);&quot;&gt;\n&lt;/span&gt;&lt;span style=&quot;color: rgb(163, 21, 21);&quot;&gt;&quot;&lt;/span&gt;);&lt;br&gt;&lt;/div&gt;&lt;/div&gt;&lt;/div&gt;" style="text;strokeColor=none;fillColor=none;align=left;verticalAlign=middle;spacingLeft=4;spacingRight=4;overflow=hidden;points=[[0,0.5],[1,0.5]];portConstraint=eastwest;rotatable=0;whiteSpace=wrap;html=1;rounded=1;" parent="UpgFTflyBAgRF1FKhpor-105" vertex="1">
          <mxGeometry y="30" width="310" height="30" as="geometry" />
        </mxCell>
        <mxCell id="UpgFTflyBAgRF1FKhpor-107" value="&lt;div style=&quot;background-color: rgb(255, 255, 255); font-family: Consolas, &amp;quot;Courier New&amp;quot;, monospace; font-size: 14px; line-height: 19px;&quot;&gt;&lt;div style=&quot;line-height: 19px;&quot;&gt;&lt;div style=&quot;line-height: 19px;&quot;&gt;&lt;div style=&quot;line-height: 19px;&quot;&gt;&lt;div style=&quot;line-height: 19px;&quot;&gt;AR_GAME_BORDER_SETUP();&lt;/div&gt;&lt;/div&gt;&lt;/div&gt;&lt;/div&gt;&lt;/div&gt;" style="text;strokeColor=none;fillColor=none;align=left;verticalAlign=middle;spacingLeft=4;spacingRight=4;overflow=hidden;points=[[0,0.5],[1,0.5]];portConstraint=eastwest;rotatable=0;whiteSpace=wrap;html=1;rounded=1;" parent="UpgFTflyBAgRF1FKhpor-105" vertex="1">
          <mxGeometry y="60" width="310" height="30" as="geometry" />
        </mxCell>
        <mxCell id="UpgFTflyBAgRF1FKhpor-108" value="&lt;div style=&quot;background-color: rgb(255, 255, 255); font-family: Consolas, &amp;quot;Courier New&amp;quot;, monospace; font-size: 14px; line-height: 19px;&quot;&gt;&lt;div style=&quot;line-height: 19px;&quot;&gt;&lt;div style=&quot;line-height: 19px;&quot;&gt;&lt;div style=&quot;line-height: 19px;&quot;&gt;AR_GAME_BORDER_UPDATE&lt;/div&gt;&lt;/div&gt;&lt;/div&gt;&lt;/div&gt;" style="swimlane;fontStyle=0;childLayout=stackLayout;horizontal=1;startSize=30;horizontalStack=0;resizeParent=1;resizeParentMax=0;resizeLast=0;collapsible=1;marginBottom=0;whiteSpace=wrap;html=1;rounded=1;" parent="1" vertex="1">
          <mxGeometry x="128" y="645" width="310" height="90" as="geometry" />
        </mxCell>
        <mxCell id="UpgFTflyBAgRF1FKhpor-109" value="&lt;div style=&quot;background-color: rgb(255, 255, 255); font-family: Consolas, &amp;quot;Courier New&amp;quot;, monospace; font-size: 14px; line-height: 19px;&quot;&gt;&lt;div style=&quot;line-height: 19px;&quot;&gt;&lt;div style=&quot;line-height: 19px;&quot;&gt;&lt;div style=&quot;line-height: 19px;&quot;&gt;APP_DBG_SIG(&quot;AR_GAME_BORDER_UPDATE&lt;span style=&quot;border-color: var(--border-color); color: rgb(238, 0, 0);&quot;&gt;\n&lt;/span&gt;&lt;span style=&quot;border-color: var(--border-color); color: rgb(163, 21, 21);&quot;&gt;&quot;&lt;/span&gt;);&lt;br&gt;&lt;/div&gt;&lt;/div&gt;&lt;/div&gt;&lt;/div&gt;" style="text;strokeColor=none;fillColor=none;align=left;verticalAlign=middle;spacingLeft=4;spacingRight=4;overflow=hidden;points=[[0,0.5],[1,0.5]];portConstraint=eastwest;rotatable=0;whiteSpace=wrap;html=1;rounded=1;" parent="UpgFTflyBAgRF1FKhpor-108" vertex="1">
          <mxGeometry y="30" width="310" height="30" as="geometry" />
        </mxCell>
        <mxCell id="UpgFTflyBAgRF1FKhpor-110" value="&lt;div style=&quot;background-color: rgb(255, 255, 255); font-family: Consolas, &amp;quot;Courier New&amp;quot;, monospace; font-size: 14px; line-height: 19px;&quot;&gt;&lt;div style=&quot;line-height: 19px;&quot;&gt;&lt;div style=&quot;line-height: 19px;&quot;&gt;&lt;div style=&quot;line-height: 19px;&quot;&gt;&lt;div style=&quot;line-height: 19px;&quot;&gt;&lt;div style=&quot;line-height: 19px;&quot;&gt;&lt;div style=&quot;line-height: 19px;&quot;&gt;AR_GAME_BORDER_UPDATE();&lt;/div&gt;&lt;/div&gt;&lt;/div&gt;&lt;/div&gt;&lt;/div&gt;&lt;/div&gt;&lt;/div&gt;" style="text;strokeColor=none;fillColor=none;align=left;verticalAlign=middle;spacingLeft=4;spacingRight=4;overflow=hidden;points=[[0,0.5],[1,0.5]];portConstraint=eastwest;rotatable=0;whiteSpace=wrap;html=1;rounded=1;" parent="UpgFTflyBAgRF1FKhpor-108" vertex="1">
          <mxGeometry y="60" width="310" height="30" as="geometry" />
        </mxCell>
        <mxCell id="UpgFTflyBAgRF1FKhpor-111" value="&lt;div style=&quot;background-color: rgb(255, 255, 255); font-family: Consolas, &amp;quot;Courier New&amp;quot;, monospace; font-size: 14px; line-height: 19px;&quot;&gt;&lt;div style=&quot;line-height: 19px;&quot;&gt;&lt;div style=&quot;line-height: 19px;&quot;&gt;&lt;div style=&quot;line-height: 19px;&quot;&gt;&lt;div style=&quot;line-height: 19px;&quot;&gt;&lt;div style=&quot;line-height: 19px;&quot;&gt;AR_GAME_BORDER_RESET&lt;/div&gt;&lt;/div&gt;&lt;/div&gt;&lt;/div&gt;&lt;/div&gt;&lt;/div&gt;" style="swimlane;fontStyle=0;childLayout=stackLayout;horizontal=1;startSize=30;horizontalStack=0;resizeParent=1;resizeParentMax=0;resizeLast=0;collapsible=1;marginBottom=0;whiteSpace=wrap;html=1;rounded=1;" parent="1" vertex="1">
          <mxGeometry x="128" y="755" width="310" height="90" as="geometry" />
        </mxCell>
        <mxCell id="UpgFTflyBAgRF1FKhpor-112" value="&lt;div style=&quot;background-color: rgb(255, 255, 255); font-family: Consolas, &amp;quot;Courier New&amp;quot;, monospace; font-size: 14px; line-height: 19px;&quot;&gt;&lt;div style=&quot;line-height: 19px;&quot;&gt;&lt;div style=&quot;line-height: 19px;&quot;&gt;&lt;div style=&quot;line-height: 19px;&quot;&gt;APP_DBG_SIG(&lt;span style=&quot;color: #a31515;&quot;&gt;&quot;&lt;/span&gt;AR_GAME_BORDER_RESET&lt;span style=&quot;color: rgb(238, 0, 0);&quot;&gt;\n&lt;/span&gt;&lt;span style=&quot;color: rgb(163, 21, 21);&quot;&gt;&quot;&lt;/span&gt;);&lt;br&gt;&lt;/div&gt;&lt;/div&gt;&lt;/div&gt;&lt;/div&gt;" style="text;strokeColor=none;fillColor=none;align=left;verticalAlign=middle;spacingLeft=4;spacingRight=4;overflow=hidden;points=[[0,0.5],[1,0.5]];portConstraint=eastwest;rotatable=0;whiteSpace=wrap;html=1;rounded=1;" parent="UpgFTflyBAgRF1FKhpor-111" vertex="1">
          <mxGeometry y="30" width="310" height="30" as="geometry" />
        </mxCell>
        <mxCell id="UpgFTflyBAgRF1FKhpor-113" value="&lt;div style=&quot;background-color: rgb(255, 255, 255); font-family: Consolas, &amp;quot;Courier New&amp;quot;, monospace; font-size: 14px; line-height: 19px;&quot;&gt;&lt;div style=&quot;line-height: 19px;&quot;&gt;&lt;div style=&quot;line-height: 19px;&quot;&gt;&lt;div style=&quot;line-height: 19px;&quot;&gt;&lt;div style=&quot;line-height: 19px;&quot;&gt;AR_GAME_BORDER_RESET();&lt;/div&gt;&lt;/div&gt;&lt;/div&gt;&lt;/div&gt;&lt;/div&gt;" style="text;strokeColor=none;fillColor=none;align=left;verticalAlign=middle;spacingLeft=4;spacingRight=4;overflow=hidden;points=[[0,0.5],[1,0.5]];portConstraint=eastwest;rotatable=0;whiteSpace=wrap;html=1;rounded=1;" parent="UpgFTflyBAgRF1FKhpor-111" vertex="1">
          <mxGeometry y="60" width="310" height="30" as="geometry" />
        </mxCell>
        <mxCell id="UpgFTflyBAgRF1FKhpor-114" value="&lt;div style=&quot;background-color: rgb(255, 255, 255); font-family: Consolas, &amp;quot;Courier New&amp;quot;, monospace; font-size: 14px; line-height: 19px;&quot;&gt;&lt;div style=&quot;line-height: 19px;&quot;&gt;&lt;div style=&quot;line-height: 19px;&quot;&gt;&lt;div style=&quot;line-height: 19px;&quot;&gt;&lt;div style=&quot;line-height: 19px;&quot;&gt;AR_GAME_CHECK_GAME_OVER&lt;/div&gt;&lt;/div&gt;&lt;/div&gt;&lt;/div&gt;&lt;/div&gt;" style="swimlane;fontStyle=0;childLayout=stackLayout;horizontal=1;startSize=30;horizontalStack=0;resizeParent=1;resizeParentMax=0;resizeLast=0;collapsible=1;marginBottom=0;whiteSpace=wrap;html=1;rounded=1;" parent="1" vertex="1">
          <mxGeometry x="126.62" y="865" width="310" height="90" as="geometry" />
        </mxCell>
        <mxCell id="UpgFTflyBAgRF1FKhpor-115" value="&lt;div style=&quot;background-color: rgb(255, 255, 255); font-family: Consolas, &amp;quot;Courier New&amp;quot;, monospace; font-size: 14px; line-height: 19px;&quot;&gt;&lt;div style=&quot;line-height: 19px;&quot;&gt;&lt;div style=&quot;line-height: 19px;&quot;&gt;APP_DBG_SIG(&lt;span style=&quot;color: #a31515;&quot;&gt;&quot;&lt;/span&gt;AR_GAME_CHECK_GAME_OVER&lt;span style=&quot;color: rgb(238, 0, 0);&quot;&gt;\n&lt;/span&gt;&lt;span style=&quot;color: rgb(163, 21, 21);&quot;&gt;&quot;&lt;/span&gt;);&lt;br&gt;&lt;/div&gt;&lt;/div&gt;&lt;/div&gt;" style="text;strokeColor=none;fillColor=none;align=left;verticalAlign=middle;spacingLeft=4;spacingRight=4;overflow=hidden;points=[[0,0.5],[1,0.5]];portConstraint=eastwest;rotatable=0;whiteSpace=wrap;html=1;rounded=1;" parent="UpgFTflyBAgRF1FKhpor-114" vertex="1">
          <mxGeometry y="30" width="310" height="30" as="geometry" />
        </mxCell>
        <mxCell id="UpgFTflyBAgRF1FKhpor-116" value="&lt;div style=&quot;background-color: rgb(255, 255, 255); font-family: Consolas, &amp;quot;Courier New&amp;quot;, monospace; font-size: 14px; line-height: 19px;&quot;&gt;&lt;div style=&quot;line-height: 19px;&quot;&gt;&lt;div style=&quot;line-height: 19px;&quot;&gt;&lt;div style=&quot;line-height: 19px;&quot;&gt;&lt;div style=&quot;line-height: 19px;&quot;&gt;AR_GAME_CHECK_GAME_OVER();&lt;/div&gt;&lt;/div&gt;&lt;/div&gt;&lt;/div&gt;&lt;/div&gt;" style="text;strokeColor=none;fillColor=none;align=left;verticalAlign=middle;spacingLeft=4;spacingRight=4;overflow=hidden;points=[[0,0.5],[1,0.5]];portConstraint=eastwest;rotatable=0;whiteSpace=wrap;html=1;rounded=1;" parent="UpgFTflyBAgRF1FKhpor-114" vertex="1">
          <mxGeometry y="60" width="310" height="30" as="geometry" />
        </mxCell>
        <mxCell id="UpgFTflyBAgRF1FKhpor-117" value="" style="edgeStyle=orthogonalEdgeStyle;rounded=1;orthogonalLoop=1;jettySize=auto;html=1;" parent="1" source="UpgFTflyBAgRF1FKhpor-133" target="UpgFTflyBAgRF1FKhpor-102" edge="1">
          <mxGeometry relative="1" as="geometry" />
        </mxCell>
        <mxCell id="UpgFTflyBAgRF1FKhpor-118" value="&lt;font style=&quot;font-size: 13px;&quot;&gt;Yes&lt;/font&gt;" style="edgeLabel;html=1;align=center;verticalAlign=middle;resizable=0;points=[];rounded=1;" parent="UpgFTflyBAgRF1FKhpor-117" vertex="1" connectable="0">
          <mxGeometry x="-0.0719" y="1" relative="1" as="geometry">
            <mxPoint x="13" y="-4" as="offset" />
          </mxGeometry>
        </mxCell>
        <mxCell id="UpgFTflyBAgRF1FKhpor-119" value="" style="edgeStyle=orthogonalEdgeStyle;rounded=1;orthogonalLoop=1;jettySize=auto;html=1;endArrow=halfCircle;endFill=0;" parent="1" source="UpgFTflyBAgRF1FKhpor-121" target="UpgFTflyBAgRF1FKhpor-122" edge="1">
          <mxGeometry relative="1" as="geometry" />
        </mxCell>
        <mxCell id="UpgFTflyBAgRF1FKhpor-120" value="" style="edgeStyle=orthogonalEdgeStyle;rounded=1;orthogonalLoop=1;jettySize=auto;html=1;" parent="1" source="UpgFTflyBAgRF1FKhpor-121" edge="1">
          <mxGeometry relative="1" as="geometry">
            <mxPoint x="128" y="540" as="targetPoint" />
            <Array as="points">
              <mxPoint x="98" y="540" />
            </Array>
          </mxGeometry>
        </mxCell>
        <mxCell id="UpgFTflyBAgRF1FKhpor-121" value="" style="ellipse;whiteSpace=wrap;html=1;rounded=1;" parent="1" vertex="1">
          <mxGeometry x="88" y="470" width="20" height="20" as="geometry" />
        </mxCell>
        <mxCell id="UpgFTflyBAgRF1FKhpor-122" value="&lt;div style=&quot;background-color: rgb(255, 255, 255); font-family: Consolas, &amp;quot;Courier New&amp;quot;, monospace; font-size: 14px; line-height: 19px;&quot;&gt;switch (&lt;span style=&quot;color: #001080;&quot;&gt;msg&lt;/span&gt;-&amp;gt;&lt;font color=&quot;#001080&quot;&gt;signal&lt;/font&gt;)&lt;/div&gt;" style="whiteSpace=wrap;html=1;rounded=1;" parent="1" vertex="1">
          <mxGeometry x="128" y="465" width="170" height="30" as="geometry" />
        </mxCell>
        <mxCell id="UpgFTflyBAgRF1FKhpor-123" value="" style="edgeStyle=orthogonalEdgeStyle;rounded=1;orthogonalLoop=1;jettySize=auto;html=1;entryX=0;entryY=0.116;entryDx=0;entryDy=0;entryPerimeter=0;" parent="1" target="UpgFTflyBAgRF1FKhpor-111" edge="1">
          <mxGeometry relative="1" as="geometry">
            <mxPoint x="128" y="665" as="sourcePoint" />
            <mxPoint x="108" y="770" as="targetPoint" />
            <Array as="points">
              <mxPoint x="98" y="665" />
              <mxPoint x="98" y="765" />
              <mxPoint x="128" y="765" />
            </Array>
          </mxGeometry>
        </mxCell>
        <mxCell id="UpgFTflyBAgRF1FKhpor-124" value="" style="edgeStyle=orthogonalEdgeStyle;rounded=1;orthogonalLoop=1;jettySize=auto;html=1;entryX=0;entryY=0.111;entryDx=0;entryDy=0;entryPerimeter=0;exitX=0;exitY=0.222;exitDx=0;exitDy=0;exitPerimeter=0;" parent="1" source="UpgFTflyBAgRF1FKhpor-111" target="UpgFTflyBAgRF1FKhpor-114" edge="1">
          <mxGeometry relative="1" as="geometry">
            <mxPoint x="118" y="780" as="sourcePoint" />
            <mxPoint x="127" y="839.5" as="targetPoint" />
            <Array as="points">
              <mxPoint x="98" y="775" />
              <mxPoint x="98" y="875" />
            </Array>
          </mxGeometry>
        </mxCell>
        <mxCell id="UpgFTflyBAgRF1FKhpor-125" value="" style="edgeStyle=orthogonalEdgeStyle;rounded=1;orthogonalLoop=1;jettySize=auto;html=1;entryX=0;entryY=0.066;entryDx=0;entryDy=0;entryPerimeter=0;exitX=0;exitY=0.209;exitDx=0;exitDy=0;exitPerimeter=0;" parent="1" source="UpgFTflyBAgRF1FKhpor-114" edge="1">
          <mxGeometry relative="1" as="geometry">
            <mxPoint x="118" y="880" as="sourcePoint" />
            <mxPoint x="126.62" y="980.94" as="targetPoint" />
            <Array as="points">
              <mxPoint x="127" y="885" />
              <mxPoint x="98" y="885" />
              <mxPoint x="98" y="981" />
            </Array>
          </mxGeometry>
        </mxCell>
        <mxCell id="UpgFTflyBAgRF1FKhpor-126" value="" style="edgeStyle=orthogonalEdgeStyle;rounded=1;orthogonalLoop=1;jettySize=auto;html=1;entryX=0.787;entryY=1;entryDx=0;entryDy=0;entryPerimeter=0;" parent="1" source="UpgFTflyBAgRF1FKhpor-127" target="UpgFTflyBAgRF1FKhpor-151" edge="1">
          <mxGeometry relative="1" as="geometry">
            <mxPoint x="566" y="220" as="targetPoint" />
            <Array as="points">
              <mxPoint x="567" y="985" />
              <mxPoint x="567" y="200" />
            </Array>
          </mxGeometry>
        </mxCell>
        <mxCell id="UpgFTflyBAgRF1FKhpor-127" value="&lt;div style=&quot;background-color: rgb(255, 255, 255); font-family: Consolas, &amp;quot;Courier New&amp;quot;, monospace; font-size: 14px; line-height: 19px;&quot;&gt;&lt;div style=&quot;line-height: 19px;&quot;&gt;&lt;div style=&quot;line-height: 19px;&quot;&gt;&lt;div style=&quot;line-height: 19px;&quot;&gt;&lt;div style=&quot;line-height: 19px;&quot;&gt;default&lt;/div&gt;&lt;/div&gt;&lt;/div&gt;&lt;/div&gt;&lt;/div&gt;" style="swimlane;fontStyle=0;childLayout=stackLayout;horizontal=1;startSize=30;horizontalStack=0;resizeParent=1;resizeParentMax=0;resizeLast=0;collapsible=1;marginBottom=0;whiteSpace=wrap;html=1;rounded=1;" parent="1" vertex="1">
          <mxGeometry x="128" y="975" width="310" height="30" as="geometry" />
        </mxCell>
        <mxCell id="UpgFTflyBAgRF1FKhpor-128" value="" style="edgeStyle=orthogonalEdgeStyle;rounded=1;orthogonalLoop=1;jettySize=auto;html=1;entryX=0.5;entryY=0;entryDx=0;entryDy=0;exitX=-0.004;exitY=0.13;exitDx=0;exitDy=0;exitPerimeter=0;" parent="1" source="UpgFTflyBAgRF1FKhpor-142" target="UpgFTflyBAgRF1FKhpor-133" edge="1">
          <mxGeometry relative="1" as="geometry">
            <mxPoint x="274" y="220" as="targetPoint" />
            <Array as="points">
              <mxPoint x="274" y="61" />
            </Array>
            <mxPoint x="342.00000000000045" y="170" as="sourcePoint" />
          </mxGeometry>
        </mxCell>
        <mxCell id="UpgFTflyBAgRF1FKhpor-129" value="" style="edgeStyle=orthogonalEdgeStyle;rounded=1;orthogonalLoop=1;jettySize=auto;html=1;entryX=0.5;entryY=1;entryDx=0;entryDy=0;" parent="1" target="UpgFTflyBAgRF1FKhpor-152" edge="1">
          <mxGeometry relative="1" as="geometry">
            <mxPoint x="438" y="940" as="sourcePoint" />
            <mxPoint x="568" y="940" as="targetPoint" />
            <Array as="points">
              <mxPoint x="715" y="940" />
            </Array>
          </mxGeometry>
        </mxCell>
        <mxCell id="UpgFTflyBAgRF1FKhpor-130" value="" style="edgeStyle=orthogonalEdgeStyle;rounded=1;orthogonalLoop=1;jettySize=auto;html=1;" parent="1" edge="1">
          <mxGeometry relative="1" as="geometry">
            <mxPoint x="438" y="835" as="sourcePoint" />
            <mxPoint x="568" y="835" as="targetPoint" />
          </mxGeometry>
        </mxCell>
        <mxCell id="UpgFTflyBAgRF1FKhpor-131" value="" style="edgeStyle=orthogonalEdgeStyle;rounded=1;orthogonalLoop=1;jettySize=auto;html=1;" parent="1" edge="1">
          <mxGeometry relative="1" as="geometry">
            <mxPoint x="436.62" y="719.7" as="sourcePoint" />
            <mxPoint x="566.62" y="719.7" as="targetPoint" />
          </mxGeometry>
        </mxCell>
        <mxCell id="UpgFTflyBAgRF1FKhpor-132" value="" style="edgeStyle=orthogonalEdgeStyle;rounded=1;orthogonalLoop=1;jettySize=auto;html=1;" parent="1" edge="1">
          <mxGeometry relative="1" as="geometry">
            <mxPoint x="438" y="605" as="sourcePoint" />
            <mxPoint x="568" y="605" as="targetPoint" />
          </mxGeometry>
        </mxCell>
        <mxCell id="6OsE9KwnTwc4k6CIQa8s-2" value="" style="edgeStyle=orthogonalEdgeStyle;rounded=0;orthogonalLoop=1;jettySize=auto;html=1;exitX=0.016;exitY=0.499;exitDx=0;exitDy=0;exitPerimeter=0;" parent="1" source="UpgFTflyBAgRF1FKhpor-133" edge="1">
          <mxGeometry relative="1" as="geometry">
            <mxPoint x="274" y="190" as="targetPoint" />
            <Array as="points">
              <mxPoint x="100" y="265" />
              <mxPoint x="100" y="190" />
            </Array>
          </mxGeometry>
        </mxCell>
        <mxCell id="6OsE9KwnTwc4k6CIQa8s-3" value="No" style="edgeLabel;html=1;align=center;verticalAlign=middle;resizable=0;points=[];" parent="6OsE9KwnTwc4k6CIQa8s-2" vertex="1" connectable="0">
          <mxGeometry x="-0.6134" relative="1" as="geometry">
            <mxPoint x="11" as="offset" />
          </mxGeometry>
        </mxCell>
        <mxCell id="UpgFTflyBAgRF1FKhpor-133" value="&lt;div style=&quot;background-color: rgb(255, 255, 255); font-family: Consolas, &amp;quot;Courier New&amp;quot;, monospace; font-size: 14px; line-height: 19px;&quot;&gt;task_post_pure_msg(&lt;/div&gt;&lt;span style=&quot;background-color: rgb(255, 255, 255);&quot;&gt;&lt;font face=&quot;Consolas, Courier New, monospace&quot; color=&quot;#ff3333&quot;&gt;AR_GAME_BORDER_ID&lt;/font&gt;&lt;font face=&quot;Consolas, Courier New, monospace&quot;&gt;,&amp;nbsp;&lt;/font&gt;&lt;/span&gt;&lt;font face=&quot;Consolas, Courier New, monospace&quot; color=&quot;#ff3333&quot;&gt;&lt;br&gt;&lt;/font&gt;&lt;div style=&quot;background-color: rgb(255, 255, 255); font-family: Consolas, &amp;quot;Courier New&amp;quot;, monospace; font-size: 14px; line-height: 19px;&quot;&gt;&lt;font color=&quot;#ff0000&quot;&gt;signal&lt;/font&gt;)&lt;/div&gt;" style="rhombus;whiteSpace=wrap;html=1;rounded=1;" parent="1" vertex="1">
          <mxGeometry x="111.37" y="210" width="325.25" height="110" as="geometry" />
        </mxCell>
        <mxCell id="UpgFTflyBAgRF1FKhpor-135" value="&lt;b&gt;(1)&lt;/b&gt;" style="text;html=1;strokeColor=none;fillColor=none;align=center;verticalAlign=middle;whiteSpace=wrap;rounded=0;" parent="1" vertex="1">
          <mxGeometry x="240" y="40" width="30" height="30" as="geometry" />
        </mxCell>
        <mxCell id="UpgFTflyBAgRF1FKhpor-136" value="&lt;b&gt;(2)&lt;/b&gt;" style="text;html=1;strokeColor=none;fillColor=none;align=center;verticalAlign=middle;whiteSpace=wrap;rounded=0;" parent="1" vertex="1">
          <mxGeometry x="78" y="270" width="30" height="30" as="geometry" />
        </mxCell>
        <mxCell id="UpgFTflyBAgRF1FKhpor-137" value="&lt;b&gt;(5)&lt;/b&gt;" style="text;html=1;strokeColor=none;fillColor=none;align=center;verticalAlign=middle;whiteSpace=wrap;rounded=0;" parent="1" vertex="1">
          <mxGeometry x="436.62" y="575" width="30" height="30" as="geometry" />
        </mxCell>
        <mxCell id="UpgFTflyBAgRF1FKhpor-138" value="&lt;b&gt;(6)&lt;/b&gt;" style="text;html=1;strokeColor=none;fillColor=none;align=center;verticalAlign=middle;whiteSpace=wrap;rounded=0;" parent="1" vertex="1">
          <mxGeometry x="438" y="685" width="30" height="40" as="geometry" />
        </mxCell>
        <mxCell id="UpgFTflyBAgRF1FKhpor-139" value="&lt;b&gt;(7)&lt;/b&gt;" style="text;html=1;strokeColor=none;fillColor=none;align=center;verticalAlign=middle;whiteSpace=wrap;rounded=0;" parent="1" vertex="1">
          <mxGeometry x="438" y="805" width="30" height="30" as="geometry" />
        </mxCell>
        <mxCell id="UpgFTflyBAgRF1FKhpor-140" value="&lt;b&gt;(8)&lt;/b&gt;" style="text;html=1;strokeColor=none;fillColor=none;align=center;verticalAlign=middle;whiteSpace=wrap;rounded=0;" parent="1" vertex="1">
          <mxGeometry x="438" y="900" width="30" height="30" as="geometry" />
        </mxCell>
        <mxCell id="UpgFTflyBAgRF1FKhpor-141" value="&lt;b&gt;(9)&lt;/b&gt;" style="text;html=1;strokeColor=none;fillColor=none;align=center;verticalAlign=middle;whiteSpace=wrap;rounded=0;" parent="1" vertex="1">
          <mxGeometry x="540" y="955" width="30" height="30" as="geometry" />
        </mxCell>
        <mxCell id="UpgFTflyBAgRF1FKhpor-142" value="scr_archery_game_handle(&lt;span style=&quot;border-color: var(--border-color); font-family: Consolas, &amp;quot;Courier New&amp;quot;, monospace; font-size: 14px; color: rgb(38, 127, 153);&quot;&gt;ak_msg_t&lt;/span&gt;&lt;span style=&quot;border-color: var(--border-color); font-family: Consolas, &amp;quot;Courier New&amp;quot;, monospace; font-size: 14px; color: rgb(0, 0, 255);&quot;&gt;*&lt;/span&gt;&lt;span style=&quot;font-family: Consolas, &amp;quot;Courier New&amp;quot;, monospace; font-size: 14px; background-color: rgb(255, 255, 255);&quot;&gt;&amp;nbsp;&lt;/span&gt;&lt;span style=&quot;border-color: var(--border-color); font-family: Consolas, &amp;quot;Courier New&amp;quot;, monospace; font-size: 14px; color: rgb(0, 16, 128);&quot;&gt;msg&lt;/span&gt;&lt;span style=&quot;font-family: Consolas, &amp;quot;Courier New&amp;quot;, monospace; font-size: 14px; background-color: rgb(255, 255, 255);&quot;&gt;)&lt;/span&gt;" style="swimlane;fontStyle=0;childLayout=stackLayout;horizontal=1;startSize=40;horizontalStack=0;resizeParent=1;resizeParentMax=0;resizeLast=0;collapsible=1;marginBottom=0;whiteSpace=wrap;html=1;" parent="1" vertex="1">
          <mxGeometry x="342" y="40" width="286" height="160" as="geometry" />
        </mxCell>
        <mxCell id="UpgFTflyBAgRF1FKhpor-143" value="&lt;div style=&quot;background-color: rgb(255, 255, 255); font-family: Consolas, &amp;quot;Courier New&amp;quot;, monospace; font-size: 14px; line-height: 19px;&quot;&gt;&lt;div style=&quot;line-height: 19px;&quot;&gt;&lt;div style=&quot;line-height: 19px;&quot;&gt;AR_GAME_BORDER_SETUP&lt;/div&gt;&lt;/div&gt;&lt;/div&gt;" style="text;strokeColor=none;fillColor=none;align=left;verticalAlign=middle;spacingLeft=4;spacingRight=4;overflow=hidden;points=[[0,0.5],[1,0.5]];portConstraint=eastwest;rotatable=0;whiteSpace=wrap;html=1;" parent="UpgFTflyBAgRF1FKhpor-142" vertex="1">
          <mxGeometry y="40" width="286" height="30" as="geometry" />
        </mxCell>
        <mxCell id="UpgFTflyBAgRF1FKhpor-144" value="&lt;div style=&quot;background-color: rgb(255, 255, 255); font-family: Consolas, &amp;quot;Courier New&amp;quot;, monospace; font-size: 14px; line-height: 19px;&quot;&gt;&lt;div style=&quot;line-height: 19px;&quot;&gt;&lt;div style=&quot;line-height: 19px;&quot;&gt;AR_GAME_BORDER_UPDATE&lt;/div&gt;&lt;/div&gt;&lt;/div&gt;" style="text;strokeColor=none;fillColor=none;align=left;verticalAlign=middle;spacingLeft=4;spacingRight=4;overflow=hidden;points=[[0,0.5],[1,0.5]];portConstraint=eastwest;rotatable=0;whiteSpace=wrap;html=1;" parent="UpgFTflyBAgRF1FKhpor-142" vertex="1">
          <mxGeometry y="70" width="286" height="30" as="geometry" />
        </mxCell>
        <mxCell id="UpgFTflyBAgRF1FKhpor-145" value="&lt;div style=&quot;background-color: rgb(255, 255, 255); font-family: Consolas, &amp;quot;Courier New&amp;quot;, monospace; font-size: 14px; line-height: 19px;&quot;&gt;&lt;div style=&quot;line-height: 19px;&quot;&gt;&lt;div style=&quot;line-height: 19px;&quot;&gt;AR_GAME_BORDER_RESET&lt;/div&gt;&lt;/div&gt;&lt;/div&gt;" style="text;strokeColor=none;fillColor=none;align=left;verticalAlign=middle;spacingLeft=4;spacingRight=4;overflow=hidden;points=[[0,0.5],[1,0.5]];portConstraint=eastwest;rotatable=0;whiteSpace=wrap;html=1;" parent="UpgFTflyBAgRF1FKhpor-142" vertex="1">
          <mxGeometry y="100" width="286" height="30" as="geometry" />
        </mxCell>
        <mxCell id="UpgFTflyBAgRF1FKhpor-151" value="&lt;div style=&quot;background-color: rgb(255, 255, 255); font-family: Consolas, &amp;quot;Courier New&amp;quot;, monospace; font-size: 14px; line-height: 19px;&quot;&gt;&lt;div style=&quot;line-height: 19px;&quot;&gt;&lt;div style=&quot;line-height: 19px;&quot;&gt;&lt;div style=&quot;line-height: 19px;&quot;&gt;AR_GAME_CHECK_GAME_OVER&lt;/div&gt;&lt;/div&gt;&lt;/div&gt;&lt;/div&gt;" style="text;strokeColor=none;fillColor=none;align=left;verticalAlign=middle;spacingLeft=4;spacingRight=4;overflow=hidden;points=[[0,0.5],[1,0.5]];portConstraint=eastwest;rotatable=0;whiteSpace=wrap;html=1;" parent="UpgFTflyBAgRF1FKhpor-142" vertex="1">
          <mxGeometry y="130" width="286" height="30" as="geometry" />
        </mxCell>
        <mxCell id="UpgFTflyBAgRF1FKhpor-149" value="&lt;b&gt;(3)&lt;/b&gt;" style="text;html=1;strokeColor=none;fillColor=none;align=center;verticalAlign=middle;whiteSpace=wrap;rounded=0;" parent="1" vertex="1">
          <mxGeometry x="78" y="335" width="30" height="30" as="geometry" />
        </mxCell>
        <mxCell id="UpgFTflyBAgRF1FKhpor-150" value="&lt;b&gt;(4)&lt;/b&gt;" style="text;html=1;strokeColor=none;fillColor=none;align=center;verticalAlign=middle;whiteSpace=wrap;rounded=0;" parent="1" vertex="1">
          <mxGeometry x="78" y="420" width="30" height="30" as="geometry" />
        </mxCell>
        <mxCell id="UpgFTflyBAgRF1FKhpor-154" value="" style="edgeStyle=orthogonalEdgeStyle;rounded=0;orthogonalLoop=1;jettySize=auto;html=1;entryX=0.998;entryY=0.126;entryDx=0;entryDy=0;entryPerimeter=0;" parent="1" source="UpgFTflyBAgRF1FKhpor-152" target="UpgFTflyBAgRF1FKhpor-142" edge="1">
          <mxGeometry relative="1" as="geometry">
            <mxPoint x="710" y="105" as="targetPoint" />
          </mxGeometry>
        </mxCell>
        <mxCell id="UpgFTflyBAgRF1FKhpor-158" value="Yes" style="edgeLabel;html=1;align=center;verticalAlign=middle;resizable=0;points=[];" parent="UpgFTflyBAgRF1FKhpor-154" vertex="1" connectable="0">
          <mxGeometry x="-0.9215" relative="1" as="geometry">
            <mxPoint x="15" as="offset" />
          </mxGeometry>
        </mxCell>
        <mxCell id="UpgFTflyBAgRF1FKhpor-156" value="" style="edgeStyle=orthogonalEdgeStyle;rounded=0;orthogonalLoop=1;jettySize=auto;html=1;" parent="1" source="UpgFTflyBAgRF1FKhpor-152" edge="1">
          <mxGeometry relative="1" as="geometry">
            <mxPoint x="570" y="865" as="targetPoint" />
          </mxGeometry>
        </mxCell>
        <mxCell id="UpgFTflyBAgRF1FKhpor-157" value="No" style="edgeLabel;html=1;align=center;verticalAlign=middle;resizable=0;points=[];" parent="UpgFTflyBAgRF1FKhpor-156" vertex="1" connectable="0">
          <mxGeometry x="-0.1385" relative="1" as="geometry">
            <mxPoint y="-15" as="offset" />
          </mxGeometry>
        </mxCell>
        <mxCell id="UpgFTflyBAgRF1FKhpor-152" value="&lt;div style=&quot;background-color: rgb(255, 255, 255); font-family: Consolas, &amp;quot;Courier New&amp;quot;, monospace; font-size: 14px; line-height: 19px;&quot;&gt;task_post_pure_msg(&lt;/div&gt;&lt;span style=&quot;background-color: rgb(255, 255, 255);&quot;&gt;&lt;font face=&quot;Consolas, Courier New, monospace&quot;&gt;&lt;font color=&quot;#ff3333&quot;&gt;AR_GAME_SCREEN_ID&lt;/font&gt;,&amp;nbsp;&lt;/font&gt;&lt;/span&gt;&lt;font face=&quot;Consolas, Courier New, monospace&quot; color=&quot;#ff3333&quot;&gt;&lt;br&gt;&lt;/font&gt;&lt;div style=&quot;background-color: rgb(255, 255, 255); font-family: Consolas, &amp;quot;Courier New&amp;quot;, monospace; font-size: 14px; line-height: 19px;&quot;&gt;AR_GAME_RESET)&lt;/div&gt;" style="rhombus;whiteSpace=wrap;html=1;rounded=1;" parent="1" vertex="1">
          <mxGeometry x="610" y="805" width="210" height="120" as="geometry" />
        </mxCell>
        <mxCell id="FUpbfvsOcdCzp_1CGTPx-1" value="&lt;b&gt;(10)&lt;/b&gt;" style="text;html=1;strokeColor=none;fillColor=none;align=center;verticalAlign=middle;whiteSpace=wrap;rounded=0;" parent="1" vertex="1">
          <mxGeometry x="650" y="790" width="30" height="30" as="geometry" />
        </mxCell>
      </root>
    </mxGraphModel>
  </diagram>
  <diagram id="0xZt90gRBu7CQiuENKFM" name="Page-2">
    <mxGraphModel dx="1018" dy="518" grid="1" gridSize="10" guides="1" tooltips="1" connect="1" arrows="1" fold="1" page="1" pageScale="1" pageWidth="850" pageHeight="1100" math="0" shadow="0">
      <root>
        <mxCell id="0" />
        <mxCell id="1" parent="0" />
        <mxCell id="8p7sbsNmrT1Dh9Ao9vYw-1" value="Screen" style="rounded=1;whiteSpace=wrap;html=1;" parent="1" vertex="1">
          <mxGeometry x="280" y="80" width="80" height="40" as="geometry" />
        </mxCell>
        <mxCell id="8p7sbsNmrT1Dh9Ao9vYw-2" value="Meteoroid" style="rounded=1;whiteSpace=wrap;html=1;" parent="1" vertex="1">
          <mxGeometry x="140" y="80" width="80" height="40" as="geometry" />
        </mxCell>
        <mxCell id="8p7sbsNmrT1Dh9Ao9vYw-3" value="Border" style="rounded=1;whiteSpace=wrap;html=1;" parent="1" vertex="1">
          <mxGeometry x="480" y="80" width="80" height="40" as="geometry" />
        </mxCell>
        <mxCell id="8p7sbsNmrT1Dh9Ao9vYw-4" value="" style="endArrow=none;dashed=1;html=1;rounded=0;entryX=0.5;entryY=1;entryDx=0;entryDy=0;" parent="1" target="8p7sbsNmrT1Dh9Ao9vYw-1" edge="1">
          <mxGeometry width="50" height="50" relative="1" as="geometry">
            <mxPoint x="320" y="480" as="sourcePoint" />
            <mxPoint x="580" y="270" as="targetPoint" />
          </mxGeometry>
        </mxCell>
        <mxCell id="8p7sbsNmrT1Dh9Ao9vYw-5" value="" style="endArrow=none;dashed=1;html=1;rounded=0;entryX=0.5;entryY=1;entryDx=0;entryDy=0;" parent="1" source="8p7sbsNmrT1Dh9Ao9vYw-14" target="8p7sbsNmrT1Dh9Ao9vYw-2" edge="1">
          <mxGeometry width="50" height="50" relative="1" as="geometry">
            <mxPoint x="180" y="480" as="sourcePoint" />
            <mxPoint x="30" y="130" as="targetPoint" />
          </mxGeometry>
        </mxCell>
        <mxCell id="8p7sbsNmrT1Dh9Ao9vYw-6" value="" style="endArrow=none;dashed=1;html=1;rounded=0;entryX=0.5;entryY=1;entryDx=0;entryDy=0;" parent="1" source="8p7sbsNmrT1Dh9Ao9vYw-12" target="8p7sbsNmrT1Dh9Ao9vYw-3" edge="1">
          <mxGeometry width="50" height="50" relative="1" as="geometry">
            <mxPoint x="520" y="490" as="sourcePoint" />
            <mxPoint x="520" y="130" as="targetPoint" />
          </mxGeometry>
        </mxCell>
        <mxCell id="8p7sbsNmrT1Dh9Ao9vYw-7" value="" style="edgeStyle=orthogonalEdgeStyle;rounded=0;orthogonalLoop=1;jettySize=auto;html=1;entryX=0;entryY=0;entryDx=0;entryDy=0;" parent="1" target="8p7sbsNmrT1Dh9Ao9vYw-12" edge="1">
          <mxGeometry relative="1" as="geometry">
            <mxPoint x="325.11" y="160" as="sourcePoint" />
            <mxPoint x="410.11" y="310.0000000000001" as="targetPoint" />
            <Array as="points">
              <mxPoint x="370.11" y="160" />
              <mxPoint x="370.11" y="160" />
            </Array>
          </mxGeometry>
        </mxCell>
        <mxCell id="8p7sbsNmrT1Dh9Ao9vYw-8" value="AR_GAME_BORDER_SETUP" style="edgeLabel;html=1;align=center;verticalAlign=middle;resizable=0;points=[];" parent="8p7sbsNmrT1Dh9Ao9vYw-7" vertex="1" connectable="0">
          <mxGeometry x="-0.0338" y="-2" relative="1" as="geometry">
            <mxPoint x="3" y="-12" as="offset" />
          </mxGeometry>
        </mxCell>
        <mxCell id="8p7sbsNmrT1Dh9Ao9vYw-9" value="" style="rounded=0;whiteSpace=wrap;html=1;" parent="1" vertex="1">
          <mxGeometry x="315" y="120" width="10" height="380" as="geometry" />
        </mxCell>
        <mxCell id="8p7sbsNmrT1Dh9Ao9vYw-10" value="" style="endArrow=none;dashed=1;html=1;rounded=0;entryX=0.5;entryY=1;entryDx=0;entryDy=0;" parent="1" target="8p7sbsNmrT1Dh9Ao9vYw-12" edge="1">
          <mxGeometry width="50" height="50" relative="1" as="geometry">
            <mxPoint x="520" y="480" as="sourcePoint" />
            <mxPoint x="520" y="120" as="targetPoint" />
          </mxGeometry>
        </mxCell>
        <mxCell id="8p7sbsNmrT1Dh9Ao9vYw-12" value="" style="rounded=0;whiteSpace=wrap;html=1;" parent="1" vertex="1">
          <mxGeometry x="515.11" y="160" width="10" height="20" as="geometry" />
        </mxCell>
        <mxCell id="8p7sbsNmrT1Dh9Ao9vYw-13" value="" style="endArrow=none;dashed=1;html=1;rounded=0;entryX=0.5;entryY=1;entryDx=0;entryDy=0;exitX=0.5;exitY=0;exitDx=0;exitDy=0;" parent="1" source="8p7sbsNmrT1Dh9Ao9vYw-52" target="8p7sbsNmrT1Dh9Ao9vYw-14" edge="1">
          <mxGeometry width="50" height="50" relative="1" as="geometry">
            <mxPoint x="180" y="319.94000000000005" as="sourcePoint" />
            <mxPoint x="180" y="144.94" as="targetPoint" />
          </mxGeometry>
        </mxCell>
        <mxCell id="8p7sbsNmrT1Dh9Ao9vYw-14" value="" style="rounded=0;whiteSpace=wrap;html=1;" parent="1" vertex="1">
          <mxGeometry x="175" y="239.94" width="10" height="40.06" as="geometry" />
        </mxCell>
        <mxCell id="8p7sbsNmrT1Dh9Ao9vYw-15" value="" style="edgeStyle=orthogonalEdgeStyle;rounded=0;orthogonalLoop=1;jettySize=auto;html=1;entryX=0;entryY=0;entryDx=0;entryDy=0;exitX=0.989;exitY=0.265;exitDx=0;exitDy=0;exitPerimeter=0;" parent="1" target="8p7sbsNmrT1Dh9Ao9vYw-17" edge="1">
          <mxGeometry relative="1" as="geometry">
            <mxPoint x="324.9999999999998" y="210.05999999999997" as="sourcePoint" />
            <mxPoint x="410.11" y="359.9600000000001" as="targetPoint" />
            <Array as="points">
              <mxPoint x="370.11" y="209.96" />
            </Array>
          </mxGeometry>
        </mxCell>
        <mxCell id="8p7sbsNmrT1Dh9Ao9vYw-16" value="AR_GAME_BORDER_UPDATE" style="edgeLabel;html=1;align=center;verticalAlign=middle;resizable=0;points=[];" parent="8p7sbsNmrT1Dh9Ao9vYw-15" vertex="1" connectable="0">
          <mxGeometry x="-0.0338" y="-2" relative="1" as="geometry">
            <mxPoint y="-12" as="offset" />
          </mxGeometry>
        </mxCell>
        <mxCell id="8p7sbsNmrT1Dh9Ao9vYw-17" value="" style="rounded=0;whiteSpace=wrap;html=1;" parent="1" vertex="1">
          <mxGeometry x="515.11" y="209.96" width="10" height="10" as="geometry" />
        </mxCell>
        <mxCell id="8p7sbsNmrT1Dh9Ao9vYw-22" value="" style="edgeStyle=orthogonalEdgeStyle;rounded=0;orthogonalLoop=1;jettySize=auto;html=1;endArrow=diamond;endFill=0;dashed=1;dashPattern=1 1;exitX=0.991;exitY=0.887;exitDx=0;exitDy=0;exitPerimeter=0;" parent="1" edge="1">
          <mxGeometry relative="1" as="geometry">
            <mxPoint x="185.00000000000009" y="265.00322000000006" as="sourcePoint" />
            <mxPoint x="520" y="273" as="targetPoint" />
            <Array as="points">
              <mxPoint x="185" y="273" />
            </Array>
          </mxGeometry>
        </mxCell>
        <mxCell id="8p7sbsNmrT1Dh9Ao9vYw-23" value="&lt;b&gt;SCORE %200 = 0&lt;/b&gt;" style="edgeLabel;html=1;align=center;verticalAlign=middle;resizable=0;points=[];" parent="8p7sbsNmrT1Dh9Ao9vYw-22" vertex="1" connectable="0">
          <mxGeometry x="-0.0338" y="-2" relative="1" as="geometry">
            <mxPoint x="84" y="-13" as="offset" />
          </mxGeometry>
        </mxCell>
        <mxCell id="8p7sbsNmrT1Dh9Ao9vYw-24" value="" style="rounded=0;whiteSpace=wrap;html=1;" parent="1" vertex="1">
          <mxGeometry x="515.11" y="300" width="10" height="34.94" as="geometry" />
        </mxCell>
        <mxCell id="8p7sbsNmrT1Dh9Ao9vYw-25" value="" style="edgeStyle=orthogonalEdgeStyle;rounded=0;orthogonalLoop=1;jettySize=auto;html=1;entryX=0;entryY=0;entryDx=0;entryDy=0;exitX=0.989;exitY=0.265;exitDx=0;exitDy=0;exitPerimeter=0;" parent="1" edge="1">
          <mxGeometry relative="1" as="geometry">
            <mxPoint x="324.9999999999998" y="290.03999999999996" as="sourcePoint" />
            <mxPoint x="515.1100000000001" y="300" as="targetPoint" />
            <Array as="points">
              <mxPoint x="325" y="300" />
              <mxPoint x="515" y="300" />
            </Array>
          </mxGeometry>
        </mxCell>
        <mxCell id="8p7sbsNmrT1Dh9Ao9vYw-26" value="AR_GAME_BORDER_UPDATE" style="edgeLabel;html=1;align=center;verticalAlign=middle;resizable=0;points=[];" parent="8p7sbsNmrT1Dh9Ao9vYw-25" vertex="1" connectable="0">
          <mxGeometry x="-0.0338" y="-2" relative="1" as="geometry">
            <mxPoint x="8" y="-12" as="offset" />
          </mxGeometry>
        </mxCell>
        <mxCell id="8p7sbsNmrT1Dh9Ao9vYw-27" value="" style="edgeStyle=orthogonalEdgeStyle;rounded=0;orthogonalLoop=1;jettySize=auto;html=1;dashed=1;exitX=0;exitY=1;exitDx=0;exitDy=0;endArrow=diamond;endFill=0;" parent="1" source="8p7sbsNmrT1Dh9Ao9vYw-24" edge="1">
          <mxGeometry relative="1" as="geometry">
            <mxPoint x="180" y="335" as="targetPoint" />
            <Array as="points">
              <mxPoint x="430" y="334.94" />
              <mxPoint x="430" y="334.94" />
            </Array>
            <mxPoint x="510" y="334.94" as="sourcePoint" />
          </mxGeometry>
        </mxCell>
        <mxCell id="8p7sbsNmrT1Dh9Ao9vYw-48" value="meteoroid speed up" style="edgeLabel;html=1;align=center;verticalAlign=middle;resizable=0;points=[];" parent="8p7sbsNmrT1Dh9Ao9vYw-27" vertex="1" connectable="0">
          <mxGeometry x="-0.1466" y="-2" relative="1" as="geometry">
            <mxPoint x="46" y="-8" as="offset" />
          </mxGeometry>
        </mxCell>
        <mxCell id="8p7sbsNmrT1Dh9Ao9vYw-28" value="" style="edgeStyle=orthogonalEdgeStyle;rounded=0;orthogonalLoop=1;jettySize=auto;html=1;entryX=0;entryY=0;entryDx=0;entryDy=0;exitX=0.989;exitY=0.265;exitDx=0;exitDy=0;exitPerimeter=0;" parent="1" target="8p7sbsNmrT1Dh9Ao9vYw-31" edge="1">
          <mxGeometry relative="1" as="geometry">
            <mxPoint x="325.11" y="480" as="sourcePoint" />
            <mxPoint x="410.11" y="630.0000000000001" as="targetPoint" />
            <Array as="points">
              <mxPoint x="370.11" y="480" />
            </Array>
          </mxGeometry>
        </mxCell>
        <mxCell id="8p7sbsNmrT1Dh9Ao9vYw-29" value="AR_GAME_BORDER_RESET" style="edgeLabel;html=1;align=center;verticalAlign=middle;resizable=0;points=[];" parent="8p7sbsNmrT1Dh9Ao9vYw-28" vertex="1" connectable="0">
          <mxGeometry x="-0.0338" y="-2" relative="1" as="geometry">
            <mxPoint x="8" y="-12" as="offset" />
          </mxGeometry>
        </mxCell>
        <mxCell id="8p7sbsNmrT1Dh9Ao9vYw-31" value="" style="rounded=0;whiteSpace=wrap;html=1;" parent="1" vertex="1">
          <mxGeometry x="515.11" y="480" width="10" height="20" as="geometry" />
        </mxCell>
        <mxCell id="8p7sbsNmrT1Dh9Ao9vYw-32" value="Setup thuộc tính&amp;nbsp;&lt;br&gt;ban đầu" style="shape=callout;whiteSpace=wrap;html=1;perimeter=calloutPerimeter;position2=0;base=22;size=10;position=0.17;" parent="1" vertex="1">
          <mxGeometry x="530" y="130" width="130" height="40" as="geometry" />
        </mxCell>
        <mxCell id="8p7sbsNmrT1Dh9Ao9vYw-33" value="Update và Check không đủ điều kiện thực hiện&amp;nbsp;" style="shape=callout;whiteSpace=wrap;html=1;perimeter=calloutPerimeter;position2=0;base=22;size=10;position=0.17;" parent="1" vertex="1">
          <mxGeometry x="530" y="180" width="130" height="60" as="geometry" />
        </mxCell>
        <mxCell id="8p7sbsNmrT1Dh9Ao9vYw-34" value="Với số lượng điểm đủ thì update diễn ra&amp;nbsp;" style="shape=callout;whiteSpace=wrap;html=1;perimeter=calloutPerimeter;position2=0;base=22;size=10;position=0.17;" parent="1" vertex="1">
          <mxGeometry x="530" y="241.94" width="130" height="38.06" as="geometry" />
        </mxCell>
        <mxCell id="8p7sbsNmrT1Dh9Ao9vYw-35" value="Tăng tốc độ di chuyển của Meteoroid" style="shape=callout;whiteSpace=wrap;html=1;perimeter=calloutPerimeter;position2=0;base=22;size=10;position=0.17;" parent="1" vertex="1">
          <mxGeometry x="530" y="284.94" width="130" height="40" as="geometry" />
        </mxCell>
        <mxCell id="8p7sbsNmrT1Dh9Ao9vYw-38" value="Reset thuộc tính" style="shape=callout;whiteSpace=wrap;html=1;perimeter=calloutPerimeter;position2=0;base=22;size=10;position=0.17;" parent="1" vertex="1">
          <mxGeometry x="530" y="450" width="130" height="40" as="geometry" />
        </mxCell>
        <mxCell id="8p7sbsNmrT1Dh9Ao9vYw-39" value="Thiên thách bị phá hủy score tăng" style="shape=callout;whiteSpace=wrap;html=1;perimeter=calloutPerimeter;position2=0.48;base=18;size=20;position=0.59;" parent="1" vertex="1">
          <mxGeometry x="80" y="183" width="230" height="49.94" as="geometry" />
        </mxCell>
        <mxCell id="8p7sbsNmrT1Dh9Ao9vYw-46" value="" style="endArrow=none;dashed=1;html=1;rounded=0;entryX=0.5;entryY=1;entryDx=0;entryDy=0;" parent="1" source="8p7sbsNmrT1Dh9Ao9vYw-52" edge="1">
          <mxGeometry width="50" height="50" relative="1" as="geometry">
            <mxPoint x="180" y="524.94" as="sourcePoint" />
            <mxPoint x="180" y="349.94000000000005" as="targetPoint" />
          </mxGeometry>
        </mxCell>
        <mxCell id="8p7sbsNmrT1Dh9Ao9vYw-53" value="" style="endArrow=none;dashed=1;html=1;rounded=0;entryX=0.5;entryY=1;entryDx=0;entryDy=0;" parent="1" target="8p7sbsNmrT1Dh9Ao9vYw-52" edge="1">
          <mxGeometry width="50" height="50" relative="1" as="geometry">
            <mxPoint x="180" y="500" as="sourcePoint" />
            <mxPoint x="180" y="325" as="targetPoint" />
          </mxGeometry>
        </mxCell>
        <mxCell id="8p7sbsNmrT1Dh9Ao9vYw-64" value="" style="edgeStyle=orthogonalEdgeStyle;rounded=0;orthogonalLoop=1;jettySize=auto;html=1;exitX=1;exitY=1;exitDx=0;exitDy=0;dashed=1;dashPattern=1 1;endArrow=diamond;endFill=0;" parent="1" source="8p7sbsNmrT1Dh9Ao9vYw-52" edge="1">
          <mxGeometry relative="1" as="geometry">
            <mxPoint x="520" y="372" as="targetPoint" />
            <Array as="points">
              <mxPoint x="185" y="372" />
            </Array>
          </mxGeometry>
        </mxCell>
        <mxCell id="8p7sbsNmrT1Dh9Ao9vYw-67" value="&lt;b&gt;meteoroid[n].x == border.x&amp;nbsp;&lt;/b&gt;" style="edgeLabel;html=1;align=center;verticalAlign=middle;resizable=0;points=[];" parent="8p7sbsNmrT1Dh9Ao9vYw-64" vertex="1" connectable="0">
          <mxGeometry x="-0.416" y="1" relative="1" as="geometry">
            <mxPoint x="143" y="-9" as="offset" />
          </mxGeometry>
        </mxCell>
        <mxCell id="8p7sbsNmrT1Dh9Ao9vYw-52" value="" style="rounded=0;whiteSpace=wrap;html=1;" parent="1" vertex="1">
          <mxGeometry x="175" y="352" width="10" height="30" as="geometry" />
        </mxCell>
        <mxCell id="8p7sbsNmrT1Dh9Ao9vYw-54" value="" style="edgeStyle=orthogonalEdgeStyle;rounded=0;orthogonalLoop=1;jettySize=auto;html=1;entryX=0;entryY=0;entryDx=0;entryDy=0;exitX=0.989;exitY=0.265;exitDx=0;exitDy=0;exitPerimeter=0;" parent="1" target="8p7sbsNmrT1Dh9Ao9vYw-56" edge="1">
          <mxGeometry relative="1" as="geometry">
            <mxPoint x="324.9999999999998" y="245.01999999999998" as="sourcePoint" />
            <mxPoint x="410.11" y="394.9200000000001" as="targetPoint" />
            <Array as="points">
              <mxPoint x="370.11" y="244.92000000000002" />
            </Array>
          </mxGeometry>
        </mxCell>
        <mxCell id="8p7sbsNmrT1Dh9Ao9vYw-55" value="AR_GAME_CHECK_GAME_OVER" style="edgeLabel;html=1;align=center;verticalAlign=middle;resizable=0;points=[];" parent="8p7sbsNmrT1Dh9Ao9vYw-54" vertex="1" connectable="0">
          <mxGeometry x="-0.0338" y="-2" relative="1" as="geometry">
            <mxPoint y="-12" as="offset" />
          </mxGeometry>
        </mxCell>
        <mxCell id="8p7sbsNmrT1Dh9Ao9vYw-56" value="" style="rounded=0;whiteSpace=wrap;html=1;" parent="1" vertex="1">
          <mxGeometry x="515.11" y="244.92000000000002" width="10" height="10" as="geometry" />
        </mxCell>
        <mxCell id="8p7sbsNmrT1Dh9Ao9vYw-57" value="" style="edgeStyle=orthogonalEdgeStyle;rounded=0;orthogonalLoop=1;jettySize=auto;html=1;entryX=0;entryY=0;entryDx=0;entryDy=0;" parent="1" target="8p7sbsNmrT1Dh9Ao9vYw-59" edge="1">
          <mxGeometry relative="1" as="geometry">
            <mxPoint x="326" y="410" as="sourcePoint" />
            <mxPoint x="515.11" y="404.55000000000007" as="targetPoint" />
            <Array as="points">
              <mxPoint x="326" y="410" />
            </Array>
          </mxGeometry>
        </mxCell>
        <mxCell id="8p7sbsNmrT1Dh9Ao9vYw-58" value="AR_GAME_CHECK_GAME_OVER" style="edgeLabel;html=1;align=center;verticalAlign=middle;resizable=0;points=[];" parent="8p7sbsNmrT1Dh9Ao9vYw-57" vertex="1" connectable="0">
          <mxGeometry x="-0.0338" y="-2" relative="1" as="geometry">
            <mxPoint x="2" y="-12" as="offset" />
          </mxGeometry>
        </mxCell>
        <mxCell id="8p7sbsNmrT1Dh9Ao9vYw-65" value="" style="edgeStyle=orthogonalEdgeStyle;rounded=0;orthogonalLoop=1;jettySize=auto;html=1;entryX=1.18;entryY=0.84;entryDx=0;entryDy=0;entryPerimeter=0;" parent="1" source="8p7sbsNmrT1Dh9Ao9vYw-59" target="8p7sbsNmrT1Dh9Ao9vYw-9" edge="1">
          <mxGeometry relative="1" as="geometry">
            <Array as="points">
              <mxPoint x="420" y="440" />
            </Array>
          </mxGeometry>
        </mxCell>
        <mxCell id="8p7sbsNmrT1Dh9Ao9vYw-66" value="AR_GAME_RESET" style="edgeLabel;html=1;align=center;verticalAlign=middle;resizable=0;points=[];" parent="8p7sbsNmrT1Dh9Ao9vYw-65" vertex="1" connectable="0">
          <mxGeometry x="-0.0236" y="-2" relative="1" as="geometry">
            <mxPoint x="2" y="-7" as="offset" />
          </mxGeometry>
        </mxCell>
        <mxCell id="8p7sbsNmrT1Dh9Ao9vYw-59" value="" style="rounded=0;whiteSpace=wrap;html=1;" parent="1" vertex="1">
          <mxGeometry x="515.11" y="410" width="10" height="30" as="geometry" />
        </mxCell>
        <mxCell id="8p7sbsNmrT1Dh9Ao9vYw-68" value="Check đạt điều kiện&amp;nbsp;" style="shape=callout;whiteSpace=wrap;html=1;perimeter=calloutPerimeter;position2=0;base=22;size=10;position=0.17;" parent="1" vertex="1">
          <mxGeometry x="530" y="331.94" width="130" height="40" as="geometry" />
        </mxCell>
        <mxCell id="8p7sbsNmrT1Dh9Ao9vYw-69" value="Gửi message để reset game" style="shape=callout;whiteSpace=wrap;html=1;perimeter=calloutPerimeter;position2=0;base=22;size=10;position=0.17;" parent="1" vertex="1">
          <mxGeometry x="530" y="394.94" width="130" height="40" as="geometry" />
        </mxCell>
        <mxCell id="1YblZYjveKSOGi2YXP3r-2" value="Thiên thạch di chuyển đến Ranh giới" style="shape=callout;whiteSpace=wrap;html=1;perimeter=calloutPerimeter;position2=0.69;base=20;size=25;position=0.31;" vertex="1" parent="1">
          <mxGeometry x="80" y="284.94" width="130" height="65.06" as="geometry" />
        </mxCell>
      </root>
    </mxGraphModel>
  </diagram>
</mxfile>
